# xmcd
#
# Track frame offsets:
#	150
#	19502
#	31204
#	54381
#	67733
#	83635
#	104412
#	120164
#	137716
#	154968
#	187895
#	228697
#	245874
#	265676
#
# Disc length: 3547 seconds
#
# Revision: 1
# Processed by: cddbd v1.5.1PL0 Copyright (c) Steve Scherf et al.
# Submitted via: audiograbber 1.83.01
#
DISCID=ad0dd90e
DTITLE=Lady Winwoods Maggot - Brother Lambert Has Left The Building 2
DYEAR=2004
DGENRE=
TTITLE0=Copperhead Road
TTITLE1=Drowsie Maggie
TTITLE2=Fallen Angels
TTITLE3=Bulldozer
TTITLE4=TheTip and the Taxman
TTITLE5=Jostlin' With Jocelyn
TTITLE6=Old Joe Clark
TTITLE7=Lannigans Ball
TTITLE8=Adieu
TTITLE9=Suspicious Minds
TTITLE10=Get Off The Gas Stove Granny
TTITLE11=Remember You're A Womble
TTITLE12=The Wild Rover
TTITLE13=End
EXTD=
EXTT0=
EXTT1=
EXTT2=
EXTT3=
EXTT4=
EXTT5=
EXTT6=
EXTT7=
EXTT8=
EXTT9=
EXTT10=
EXTT11=
EXTT12=
EXTT13=
PLAYORDER=
